# xmcd
#
# Track frame offsets:
#	150
#	13566
#	27827
#	37140
#	52707
#	66204
#	94740
#	110757
#	121096
#	135952
#	151763
#	165873
#
# Disc length: 2449 seconds
#
# Revision: 1
# Processed by: cddbd v1.4PL0 Copyright (c) Steve Scherf et al.
# Submitted via: audiograbber 1.80.04
#
DISCID=86098f0c
DTITLE=Linda Feller - Wintermärchenzeit
DYEAR=2001
DGENRE=Country
TTITLE0=Wintermärchenzeit
TTITLE1=Der Winter wird ein Sommer für mich
TTITLE2=We wish you a Merry Christmas
TTITLE3=Tanzen auf dem Eis
TTITLE4=Frohe Weihnacht mein Kind
TTITLE5=Weihnachtsmedley
TTITLE6=Still ist die Nacht
TTITLE7=Herbei oh ihr Gläubigen (a cappella)
TTITLE8=Wieder bei mir
TTITLE9=Stimm ein Lied an (Little Drummer Boy)
TTITLE10=Weihnachten wie's immer war
TTITLE11=What child is this
EXTD=
EXTT0=
EXTT1=
EXTT2=
EXTT3=
EXTT4=
EXTT5=
EXTT6=
EXTT7=
EXTT8=
EXTT9=
EXTT10=
EXTT11=
PLAYORDER=
